<?xml version="1.0" encoding="utf-8"?>
<!-- Generator: Adobe Illustrator 19.1.0, SVG Export Plug-In . SVG Version: 6.00 Build 0)  -->
<svg version="1.1" id="Layer_1" xmlns="http://www.w3.org/2000/svg" xmlns:xlink="http://www.w3.org/1999/xlink" x="0px" y="0px"
	 viewBox="-213 248.1 363.4 175.3" style="enable-background:new -213 248.1 363.4 175.3;" xml:space="preserve">
<style type="text/css">
	.st0{fill:#BBBDBF;}
	.st1{fill:none;stroke:#FFFFFF;stroke-width:3.375;stroke-miterlimit:10;}
	.st2{fill:#231F20;}
	.st3{fill:#A32A29;stroke:#FFF6E0;stroke-width:2.0311;stroke-linejoin:round;stroke-miterlimit:10;}
	.st4{fill:#F42534;stroke:#FFF6E0;stroke-width:2.0311;stroke-miterlimit:10;}
	.st5{fill:#3FAE2A;}
	.st6{fill:#3FAE2A;stroke:#FFF6E0;stroke-width:2.0311;stroke-linejoin:round;stroke-miterlimit:10;}
	.st7{fill:#A6A8AB;}
	.st8{fill:none;stroke:#FFF6E0;stroke-width:2.0311;stroke-linecap:round;stroke-miterlimit:10;}
	.st9{fill:#998675;}
</style>
<g>
	<g>
		<path class="st0" d="M-213,279.8c0,17,8.1,29.5,23.9,29.5c5,0,9.2-1.8,11.7-3.4l-1.2-3.2c-3.3,1.2-5.7,1.7-8.7,1.7
			c-7,0-12.9-10.3-12.9-24.6c0-14.3,5.9-24.6,12.9-24.6c3,0,5.5,0.5,8.7,1.7l1.2-3.2c-2.5-1.6-6.8-3.3-11.7-3.3
			C-204.9,250.4-213,262.9-213,279.8z"/>
		<path class="st0" d="M-86.9,289.3c-4.5-9.5-11.5-28-14.7-38h-13.3v1.1c1.6,0.1,2.6,0.8,3.4,2.2c-1.6,4.6-6.8,20.5-10.7,30.5h-0.3
			c0-4.9-4.7-11.1-9-14.5c-4.8-3.8-8.9-6.6-8.9-10.9c0-4.3,6-6.9,13.3-3.8l1.1-3c-2.1-1.1-5.3-2.5-10.5-2.5
			c-7.6,0-12.5,5.5-12.5,11.5c0,6.9,5.5,11.6,9.3,14.7c3.9,3.1,8.2,8.3,8.2,11.9s-2.3,7.7-7.4,7.7c-5.1,0-8.6-4-11.2-8.8
			c-2.5-4.9-11.4-28.1-13.6-35.9h-12.7v1c1.6,0.1,2.6,0.8,3.4,2.2c-1.6,4.6-6.9,20.4-10.7,30.5c-1.8,4.8-3.3,7.7-5.6,8.7v0.9h11.4
			V294c-2.4-0.4-3.5-2.7-2.9-4.7l2.4-7h16c0.9,2.5,1.5,4.5,1.8,5.3c1.1,3.4,1,5.7,0.3,7.2c9.8,0,14.6,4.9,21.3,4.9
			c6.8,0,9.4-3,11.8-4.2c3.2-1.6,10.4-0.7,10.4-0.7v-0.9c-2.4-0.4-3.2-2.5-2.6-4.5l2.4-7h17c1.8,5,3.3,9.5,4,12.4h13.5v-1.1
			C-85,293.1-86.1,291-86.9,289.3z M-177.1,278.6l6.7-19.3c0,0,3.8,10.9,6.8,19.3H-177.1z M-115.6,278.6l6.7-19.2
			c1.6,3.7,4.7,11.5,7.5,19.2H-115.6z"/>
		<path class="st0" d="M120.3,284.1c0-3.6-1.3-6.6-5.2-9.8c-3.9-3.1-9.3-6.5-9.3-12.6c0-6,4.9-11.5,12.5-11.5
			c5.2,0,8.3,1.4,10.5,2.5l-1.1,3.1c-7.3-3.1-13.3-0.5-13.3,3.8c0,2.8,3.1,4.3,7.9,8.1c4.3,3.4,7.4,7.2,7.4,14.2
			s-4.8,12.7-13.9,12.7c-4.2,0-7.4-1.1-9.9-2.1l1.2-2.9C109.7,290.8,120.3,293.4,120.3,284.1z"/>
		<path class="st0" d="M61,289.3c-4.5-9.5-11.5-28-14.7-38H33v1.1c1.6,0.1,2.6,0.8,3.4,2.2c-1.6,4.6-6.8,20.5-10.7,30.5h-0.3
			c0-4.9-4.7-11.1-9-14.5c-4.8-3.8-8.9-6.6-8.9-10.9c0-4.3,6-6.9,13.3-3.8l1.1-3.1c-2.1-1.1-5.3-2.5-10.5-2.5
			c-7.6,0-12.5,5.5-12.5,11.5c0,6.9,5.5,11.6,9.3,14.7c3.9,3.1,8.2,8.3,8.2,11.9c0,3.6-2.3,7.7-7.4,7.7c-5.1,0-8.3-2.3-9.9-7.5
			c-2.5,2-6.2,4.9-11.6,4.9v1.2c9.8,0,14.6,4.9,21.3,4.9c6.8,0,9.4-3,11.8-4.2c3.2-1.6,10.4-0.7,10.4-0.7v-0.9
			c-2.4-0.4-3.3-2.5-2.6-4.5l2.4-7h16.8c1.8,5,3.3,9.5,4,12.4h13.5v-1.1C62.9,293.1,61.8,291,61,289.3z M32.3,278.6l6.7-19.2
			c1.6,3.7,4.7,11.5,7.5,19.2H32.3z"/>
		<path class="st0" d="M-75,251.4v1.3c2.2,0.5,4.1,2.8,4.1,8.9c0,6,0,23.3,0,23.3c0,4.1-1.6,8.6-4.1,8.9v0.9h17.9v-0.9
			c-1.4-0.5-4.5-1.3-4.5-9.1c0-7.8,0-28.3,0-28.3c1.6-2,3.4-2.8,6.6-2.8c3.2,0,10.8,1.4,10.8,10c0,6.5-2.9,10.2-8.2,10.2
			c-3.7,0-6.8-0.9-10.3-2.8v3c7,3.2,11.4,9.5,17.3,20.1c5.9,10.6,15,15.2,24.4,15.2c8.2,0,12.4-4,13.8-6.5l-1.3-1.1
			c-2.3,2.6-4.6,4.3-10.5,4.3s-10.8-9-14.4-14.4c-5.9-8.8-13.3-13.5-20.4-15.6l0.1-0.2c13.7,2.9,19.7-5,19.7-11
			c0-9.2-6.5-14.2-16.6-14.2c-4,0-9.4,1-14.2,1C-69.6,251.4-72.3,251.4-75,251.4z"/>
		<path class="st0" d="M-17.2,250.4c12.9,0,18,9.9,18,19.1c0,9.3-5.1,19.1-18,19.1s-18-9.9-18-19.1
			C-35.2,260.2-30.1,250.4-17.2,250.4z M-17.2,253.9c-5.3,0-8.7,6-8.7,15.6s3.5,15.6,8.7,15.6c5.3,0,8.7-6,8.7-15.6
			S-11.9,253.9-17.2,253.9z"/>
		<path class="st0" d="M73.3,261.3c0-4.1,1.5-8.6,3.9-8.9v-1H59.3v0.9c1.4,0.5,4.5,1.3,4.5,9.1v31.2c0,4.3-1.8,8.6-4.7,10.5l0.8,1.6
			c5.5-2.4,10.1-2.6,15.1-2.6c5.1,0,28.7,6.5,38.6,6.5c6.5,0,10-2.2,11.6-3.5l2.3-8.2l-0.9-0.5c-3,2.7-8.8,6.6-18.3,6.6
			s-25.9-4-34.5-3.9c-0.1-2.6-0.5-7.6-0.5-9.8V261.3z"/>
		<path class="st0" d="M107.3,281.8c-1.7,2.2-3.7,3.7-5.8,3.7h-9.4v-18.8c1.4,0,3.6,0,5,0c2.2,0,4.1,0.7,5.6,2.5l0.6-0.3
			c-1.6-2.6-1.9-5.8-1.9-5.8c-1.3,0.6-2.2,0.7-4.2,0.7h-5v-10.1c0,0,2.7,0,5.8,0c3.1,0,5.3,1.6,6.4,3.2l0.7-0.5l-2.6-5H79.3v0.9
			c1.4,0.5,4.5,1.3,4.5,9.1v16.7c0,7.8-3.1,8.5-4.5,9.1v1h25.3l3.8-5.9L107.3,281.8z"/>
	</g>
	<g>
		<g>
			<path class="st1" d="M-182.9,302.2c-7,0-12.9-10.3-12.9-24.6s5.9-24.6,12.9-24.6c3,0,5.5,0.5,8.7,1.7l1.2-3.2
				c-2.4-1.6-6.7-3.4-11.6-3.4c-15.8,0-23.9,12.5-23.9,29.5s8.1,29.5,23.9,29.5c5,0,9.2-1.8,11.7-3.4l-1.2-3.2
				C-177.4,301.7-179.9,302.2-182.9,302.2z"/>
			<path class="st2" d="M-182.9,302.2c-7,0-12.9-10.3-12.9-24.6s5.9-24.6,12.9-24.6c3,0,5.5,0.5,8.7,1.7l1.2-3.2
				c-2.4-1.6-6.7-3.4-11.6-3.4c-15.8,0-23.9,12.5-23.9,29.5s8.1,29.5,23.9,29.5c5,0,9.2-1.8,11.7-3.4l-1.2-3.2
				C-177.4,301.7-179.9,302.2-182.9,302.2z"/>
		</g>
		<g>
			<path class="st1" d="M-82.4,287c-4.5-9.5-11.5-28-14.7-38h-13.3v1.1c1.6,0.1,2.6,0.8,3.4,2.2c-1.6,4.6-6.8,20.5-10.7,30.5h-0.3
				c0-4.9-4.7-11.1-9-14.5c-4.8-3.8-8.9-6.6-8.9-10.9c0-4.3,6-6.9,13.3-3.8l1.1-3.1c-2.1-1-5.2-2.4-10.4-2.4
				c-7.6,0-12.5,5.5-12.5,11.5c0,6.9,5.5,11.6,9.3,14.7c3.9,3.1,8.2,8.3,8.2,11.9c0,3.6-2.3,7.7-7.4,7.7s-8.6-4-11.2-8.8
				c-2.5-4.9-11.3-28.2-13.5-35.9h-12.9v1c1.6,0.1,2.6,0.8,3.4,2.2c-1.6,4.6-6.9,20.4-10.7,30.5c-1.8,4.8-3.3,7.7-5.6,8.7v0.9h11.4
				v-0.8c-2.4-0.4-3.5-2.7-2.9-4.7l2.4-7h16c0.9,2.5,1.5,4.5,1.8,5.3c1.1,3.4,1,5.7,0.3,7.2c9.8,0,14.6,4.9,21.3,4.9
				c6.8,0,9.4-3,11.8-4.2c3.2-1.6,10.4-0.7,10.4-0.7v-0.9c-2.4-0.4-3.2-2.5-2.6-4.5l2.4-7h16.8c1.8,5,3.3,9.5,4,12.4H-78v-1.1
				C-80.5,290.9-81.6,288.7-82.4,287z M-172.6,276.3l6.8-19.2c0,0,3.8,10.9,6.8,19.3L-172.6,276.3L-172.6,276.3z M-111.1,276.3
				l6.7-19.2c1.6,3.7,4.7,11.5,7.5,19.2H-111.1z"/>
			<path class="st2" d="M-82.4,287c-4.5-9.5-11.5-28-14.7-38h-13.3v1.1c1.6,0.1,2.6,0.8,3.4,2.2c-1.6,4.6-6.8,20.5-10.7,30.5h-0.3
				c0-4.9-4.7-11.1-9-14.5c-4.8-3.8-8.9-6.6-8.9-10.9c0-4.3,6-6.9,13.3-3.8l1.1-3.1c-2.1-1-5.2-2.4-10.4-2.4
				c-7.6,0-12.5,5.5-12.5,11.5c0,6.9,5.5,11.6,9.3,14.7c3.9,3.1,8.2,8.3,8.2,11.9c0,3.6-2.3,7.7-7.4,7.7s-8.6-4-11.2-8.8
				c-2.5-4.9-11.3-28.2-13.5-35.9h-12.9v1c1.6,0.1,2.6,0.8,3.4,2.2c-1.6,4.6-6.9,20.4-10.7,30.5c-1.8,4.8-3.3,7.7-5.6,8.7v0.9h11.4
				v-0.8c-2.4-0.4-3.5-2.7-2.9-4.7l2.4-7h16c0.9,2.5,1.5,4.5,1.8,5.3c1.1,3.4,1,5.7,0.3,7.2c9.8,0,14.6,4.9,21.3,4.9
				c6.8,0,9.4-3,11.8-4.2c3.2-1.6,10.4-0.7,10.4-0.7v-0.9c-2.4-0.4-3.2-2.5-2.6-4.5l2.4-7h16.8c1.8,5,3.3,9.5,4,12.4H-78v-1.1
				C-80.5,290.9-81.6,288.7-82.4,287z M-172.6,276.3l6.8-19.2c0,0,3.8,10.9,6.8,19.3L-172.6,276.3L-172.6,276.3z M-111.1,276.3
				l6.7-19.2c1.6,3.7,4.7,11.5,7.5,19.2H-111.1z"/>
		</g>
		<g>
			<path class="st1" d="M119.6,272.1c3.9,3.1,5.2,6.2,5.2,9.8c0,9.3-10.6,6.6-13.3,5.6l-1.2,2.9c2.4,1,5.7,2.1,9.9,2.1
				c9.1,0,13.9-5.7,13.9-12.7s-3-10.8-7.4-14.2c-4.9-3.8-7.9-5.2-7.9-8.1c0-4.3,6-6.9,13.3-3.8l1.1-3.1c-2.1-1.1-5.3-2.5-10.5-2.5
				c-7.6,0-12.5,5.5-12.5,11.5C110.3,265.7,115.8,269,119.6,272.1z"/>
			<path class="st2" d="M119.6,272.1c3.9,3.1,5.2,6.2,5.2,9.8c0,9.3-10.6,6.6-13.3,5.6l-1.2,2.9c2.4,1,5.7,2.1,9.9,2.1
				c9.1,0,13.9-5.7,13.9-12.7s-3-10.8-7.4-14.2c-4.9-3.8-7.9-5.2-7.9-8.1c0-4.3,6-6.9,13.3-3.8l1.1-3.1c-2.1-1.1-5.3-2.5-10.5-2.5
				c-7.6,0-12.5,5.5-12.5,11.5C110.3,265.7,115.8,269,119.6,272.1z"/>
		</g>
		<g>
			<path class="st1" d="M112.8,300.8c-9.5,0-25.9-4-34.5-3.9c-0.1-2.6-0.5-7.6-0.5-9.8V259c0-4.1,1.5-8.6,3.9-8.9v-1H63.8v1
				c1.4,0.5,4.5,1.3,4.5,9.1v31.2c0,0.1,0,0.2,0,0.4c-1.4-0.9-2.2-2.4-2.8-3.7c-4.5-9.5-11.5-28-14.7-38H37.5v1.1
				c1.6,0.1,2.6,0.8,3.4,2.2c-1.6,4.6-6.8,20.5-10.7,30.5h-0.3c0-4.9-4.7-11.1-9-14.5c-4.8-3.8-8.9-6.6-8.9-10.9
				c0-4.3,6-6.9,13.3-3.8l1.1-3.1c-2.1-1.1-5.3-2.5-10.5-2.5c-7,0-11.7,4.7-12.4,10.1c-2.4-5.7-7.5-10.1-16.2-10.1
				c-9.7,0-14.9,5.5-17,12.1c-0.9-7.8-7.1-12.1-16.4-12.1c-4,0-9.4,1-14.2,1s-7.5,0-10.2,0v1.3c2.2,0.5,4.1,2.8,4.1,8.9
				c0,6,0,23.3,0,23.3c0,4.1-1.6,8.6-4.1,8.9v0.9h17.9v-0.9c-1.4-0.5-4.5-1.3-4.5-9.1c0-2.5,0-6.3,0-10.3
				c6.4,3.3,10.7,9.5,16.2,19.5c5.9,10.6,15,15.2,24.4,15.2c8.2,0,12.4-4,13.8-6.5l-1.3-1.1c-2.3,2.6-4.6,4.3-10.5,4.3
				s-10.8-9-14.4-14.4c-5.9-8.8-13.3-13.5-20.4-15.6l0.1-0.2c10.3,2.2,16.2-1.7,18.6-6.4c0,0.1,0,0.2,0,0.2c0,9.3,5.1,19.1,18,19.1
				s18-9.9,18-19.1c0-0.3,0-0.7,0-1c1.9,3.4,5,6.1,7.5,8.1c3.9,3.1,8.2,8.3,8.2,11.9s-2.3,7.7-7.4,7.7c-5.1,0-8.3-2.3-9.9-7.5
				c-2.5,2-6.2,4.9-11.6,4.9v1.2c9.8,0,14.6,4.9,21.3,4.9c6.8,0,9.4-3,11.8-4.2c3.2-1.6,10.4-0.7,10.4-0.7v-0.9
				c-2.4-0.4-3.3-2.5-2.6-4.5l2.4-7h16.8c1.8,5,3.3,9.5,4,12.4h11.8c-0.5,3.6-2.1,6.9-4.6,8.4l0.8,1.6c5.5-2.4,10.1-2.6,15.1-2.6
				c5.1,0,28.7,6.5,38.6,6.5c6.5,0,10-2.2,11.6-3.5l2.3-8.2l-0.9-0.5C128,296.9,122.2,300.8,112.8,300.8z M-47.8,271.4
				c-3.3,0-6.1-0.8-9.2-2.3c0-7.6,0-14.9,0-14.9c1.6-2,3.4-2.8,6.6-2.8c3.2,0,10.8,1.4,10.8,10C-39.6,267.7-42.6,271.4-47.8,271.4z
				 M-12.7,282.9c-5.3,0-8.7-6-8.7-15.6c0-9.6,3.5-15.6,8.7-15.6c5.3,0,8.7,6,8.7,15.6C-4,276.8-7.4,282.9-12.7,282.9z M36.8,276.3
				l6.7-19.2c1.6,3.7,4.7,11.5,7.5,19.2H36.8z"/>
			<path class="st2" d="M112.8,300.8c-9.5,0-25.9-4-34.5-3.9c-0.1-2.6-0.5-7.6-0.5-9.8V259c0-4.1,1.5-8.6,3.9-8.9v-1H63.8v1
				c1.4,0.5,4.5,1.3,4.5,9.1v31.2c0,0.1,0,0.2,0,0.4c-1.4-0.9-2.2-2.4-2.8-3.7c-4.5-9.5-11.5-28-14.7-38H37.5v1.1
				c1.6,0.1,2.6,0.8,3.4,2.2c-1.6,4.6-6.8,20.5-10.7,30.5h-0.3c0-4.9-4.7-11.1-9-14.5c-4.8-3.8-8.9-6.6-8.9-10.9
				c0-4.3,6-6.9,13.3-3.8l1.1-3.1c-2.1-1.1-5.3-2.5-10.5-2.5c-7,0-11.7,4.7-12.4,10.1c-2.4-5.7-7.5-10.1-16.2-10.1
				c-9.7,0-14.9,5.5-17,12.1c-0.9-7.8-7.1-12.1-16.4-12.1c-4,0-9.4,1-14.2,1s-7.5,0-10.2,0v1.3c2.2,0.5,4.1,2.8,4.1,8.9
				c0,6,0,23.3,0,23.3c0,4.1-1.6,8.6-4.1,8.9v0.9h17.9v-0.9c-1.4-0.5-4.5-1.3-4.5-9.1c0-2.5,0-6.3,0-10.3
				c6.4,3.3,10.7,9.5,16.2,19.5c5.9,10.6,15,15.2,24.4,15.2c8.2,0,12.4-4,13.8-6.5l-1.3-1.1c-2.3,2.6-4.6,4.3-10.5,4.3
				s-10.8-9-14.4-14.4c-5.9-8.8-13.3-13.5-20.4-15.6l0.1-0.2c10.3,2.2,16.2-1.7,18.6-6.4c0,0.1,0,0.2,0,0.2c0,9.3,5.1,19.1,18,19.1
				s18-9.9,18-19.1c0-0.3,0-0.7,0-1c1.9,3.4,5,6.1,7.5,8.1c3.9,3.1,8.2,8.3,8.2,11.9s-2.3,7.7-7.4,7.7c-5.1,0-8.3-2.3-9.9-7.5
				c-2.5,2-6.2,4.9-11.6,4.9v1.2c9.8,0,14.6,4.9,21.3,4.9c6.8,0,9.4-3,11.8-4.2c3.2-1.6,10.4-0.7,10.4-0.7v-0.9
				c-2.4-0.4-3.3-2.5-2.6-4.5l2.4-7h16.8c1.8,5,3.3,9.5,4,12.4h11.8c-0.5,3.6-2.1,6.9-4.6,8.4l0.8,1.6c5.5-2.4,10.1-2.6,15.1-2.6
				c5.1,0,28.7,6.5,38.6,6.5c6.5,0,10-2.2,11.6-3.5l2.3-8.2l-0.9-0.5C128,296.9,122.2,300.8,112.8,300.8z M-47.8,271.4
				c-3.3,0-6.1-0.8-9.2-2.3c0-7.6,0-14.9,0-14.9c1.6-2,3.4-2.8,6.6-2.8c3.2,0,10.8,1.4,10.8,10C-39.6,267.7-42.6,271.4-47.8,271.4z
				 M-12.7,282.9c-5.3,0-8.7-6-8.7-15.6c0-9.6,3.5-15.6,8.7-15.6c5.3,0,8.7,6,8.7,15.6C-4,276.8-7.4,282.9-12.7,282.9z M36.8,276.3
				l6.7-19.2c1.6,3.7,4.7,11.5,7.5,19.2H36.8z"/>
		</g>
		<g>
			<path class="st1" d="M112.9,280l-1.1-0.5c-1.7,2.2-3.7,3.7-5.8,3.7h-9.4v-18.8c1.4,0,3.6,0,5,0c2.2,0,4.1,0.7,5.6,2.5l0.6-0.3
				c-1.6-2.6-1.9-5.8-1.9-5.8c-1.3,0.6-2.2,0.7-4.2,0.7h-5v-10.1c0,0,2.7,0,5.8,0c3.1,0,5.3,1.6,6.4,3.2l0.7-0.5l-2.6-5H83.8v1
				c1.4,0.5,4.5,1.3,4.5,9.1v16.6c0,7.8-3.1,8.5-4.5,9.1v1h25.3L112.9,280z"/>
			<path class="st2" d="M112.9,280l-1.1-0.5c-1.7,2.2-3.7,3.7-5.8,3.7h-9.4v-18.8c1.4,0,3.6,0,5,0c2.2,0,4.1,0.7,5.6,2.5l0.6-0.3
				c-1.6-2.6-1.9-5.8-1.9-5.8c-1.3,0.6-2.2,0.7-4.2,0.7h-5v-10.1c0,0,2.7,0,5.8,0c3.1,0,5.3,1.6,6.4,3.2l0.7-0.5l-2.6-5H83.8v1
				c1.4,0.5,4.5,1.3,4.5,9.1v16.6c0,7.8-3.1,8.5-4.5,9.1v1h25.3L112.9,280z"/>
		</g>
	</g>
	<path class="st3" d="M-67.7,340.8c0-7.1-0.2-12.1-8.2-21.2c-5.1-5.8-8.6-8.3-13.3-9.7c1.3,4.9,1.4,16.1-7.7,15.1
		c-9-1-19.2-0.4-20,5c-1.6,10.1,18.9,16.2,39.1,16.2C-70.7,346.2-67.7,344.4-67.7,340.8z"/>
	<g>
		<path class="st4" d="M-83.5,328.1c0-6.4-1.7-13.5-5.6-17.7c1.3,5.1,0.1,15.4-8.6,14c-9.3-1.5-17.9,1-19,4.3
			c-1.4,4.6,1.7,8.2,7.2,10.4C-94.7,345-83.5,335.6-83.5,328.1z"/>
	</g>
	<path class="st5" d="M6,348.2c-5.8-1-8.8-2.5-11.1-3.6c-3.9-11.7-18.8-20.5-26-18.8c4.3,1.6,5.8,5.6,6.8,8.9
		c1.3,4.4,7.6,11.4,18.3,11.6c3.7,1.5,7.9,2.6,10.7,2.9L6,348.2z"/>
	<path class="st5" d="M-22.3,353.4c-3.9,3.1-6,4.3-9.1,5.5c-2.9,5-6.7,6.3-10.2,6.8c-11.6,1.7-17-3.9-25.3-1.9
		c5.4-2.5,11.7-7.2,22-8.2c6.5-0.6,8.7,2.8,12.8,1.8c4-1,5.5-2.8,6.8-3.7L-22.3,353.4z"/>
	<path class="st5" d="M-42.1,350.9c-2.9-1.8-4.9-4.1-5.6-5.1c-0.1-2.9,0.1-14.4-13.7-18.5c1,6.4-0.4,15.3,12,19
		c2.4,2.5,4.4,4.4,5.9,5.3L-42.1,350.9z"/>
	<path class="st6" d="M53.2,318.5l-0.5,0.1c-2.2,0.6-2.9,0.6-5.2,0l-0.6-0.1l-0.3,0.5c-4.4,7.1-13.9,18.2-20.8,18.2
		c-0.7,0-1.3-0.1-1.9-0.3l-1-0.3l-0.1,1c-0.2,2.1-2.5,4.4-4.5,5.3c-1.9,0.8-12,4.4-26,6.5c-5.4,0.8-12.9,1.3-20.6,1.3
		c-14.6,0-27.1-1.6-34.1-4.5c-0.7-0.3-1.1-3-1.4-5.2c-0.5-3.6-1-7.7-3.3-9.8l-1.5-1.5l0.2,2.1c0.1,0.6,0.2,1.4,0.3,2.4
		c0.4,2.5,1,6.3,0.3,8.1c-3.5-0.1-7.1-1.7-9.5-3l-3.1-1.6l2.1,2.8c1.7,2.3,2.6,3.5,3.5,4.4c-2.7,1.4-5.4,1.8-8.4,1.4l-4.8-0.7
		l4.3,2.2c2,1,4.6,1.2,6.7,1.2c0.9,0,1.8,0,2.7-0.1c0.8,0,1.7-0.1,2.5-0.1c1.3,0,2.3,0.1,3,0.2c1,0.2,2.2,0.5,3.8,1
		c6.5,1.7,18.6,4.9,34.1,4.9c14.1,0,14.7,1.1,15.9,3.3l0.8,1.4l0.7-1.3c1.3-2.5,3.5-3.8,7-4.2c28-3.4,50.7-16,60.8-33.6l0.3-0.5
		L53.2,318.5z"/>
	<g>
		<path class="st7" d="M-71.8,347.9c1.4,0,2.4,0.1,3.2,0.2c0.9,0.2,2.2,0.5,3.8,0.9c6.6,1.8,18.6,4.9,34,4.9c13.6,0,15.2,1,16.7,3.5
			c1.5-2.5,3.9-4,7.6-4.5c27.6-3.4,50-15.7,60-33l-0.5-0.5c-2.1,0.5-3.2,0.5-5.4,0C42.9,326.9,33.4,338,26,338c-0.7,0-1.3-0.1-2-0.3
			c-0.4,2.4-2.9,4.9-5.1,5.9c-2,0.9-12.2,4.5-26.2,6.6c-5.5,0.8-13,1.3-20.7,1.3c-14.7,0-27.3-1.7-34.5-4.5c-1.1-0.5-1.5-2.3-2-6
			c-0.4-3.2-0.9-6.8-2.6-8.8c0.1,0.5,0.2,1.1,0.3,1.7c0.4,2.8,1.1,6.5,0.2,8.7c-0.2,0.4-0.5,0.6-1,0.6c-3.4-0.1-6.7-1.5-9.2-2.7
			c1.3,1.8,2.1,2.8,2.9,3.5c0.2,0.2,0.4,0.6,0.3,0.9c0,0.3-0.2,0.6-0.5,0.8c-2.4,1.3-4.9,1.8-7.5,1.6c1.6,0.4,3.3,0.5,4.8,0.5
			c0.9,0,1.8,0,2.7-0.1C-73.5,347.9-72.6,347.9-71.8,347.9z"/>
	</g>
	<path class="st8" d="M-96.7,324.6c9.6,1.2,7.6,6.9,3.6,9.1c-4.1,2.2-13,2.7-14.8-1.3c-1.8-4.1,7.7-5,11-2.2"/>
	<g>
		<path class="st2" d="M141,249.3v1.2h-2.3v6.1h-1.5v-6.1h-2.3v-1.2H141z M149,256.6l-0.3-4.3c0-0.6,0-1.3-0.1-2.1h-0.1
			c-0.2,0.6-0.4,1.5-0.6,2.2l-1.3,4.1h-1.5l-1.3-4.2c-0.1-0.6-0.4-1.4-0.5-2.1h-0.1c0,0.7,0,1.4-0.1,2.1l-0.3,4.3h-1.4l0.5-7.3h2.2
			l1.3,3.6c0.2,0.6,0.3,1.1,0.5,1.9l0,0c0.2-0.7,0.4-1.3,0.5-1.8l1.3-3.6h2.1l0.6,7.3H149V256.6z"/>
	</g>
</g>
<polygon class="st9" points="-153.2,365.9 -155.1,364 -162.3,371.3 -164.1,369.5 -156.8,362.2 -158.7,360.3 -157.3,358.9 
	-151.7,364.4 "/>
<path class="st9" d="M-142,372.1c0.8,0.6,1.4,1.3,1.5,2c0.2,0.8-0.1,1.6-0.7,2.4c-0.5,0.7-1,1.1-1.6,1.4c-0.6,0.2-1.2,0.2-1.8-0.1
	l0,0c0.5,0.4,0.7,0.9,0.8,1.3c0.1,0.4-0.1,0.9-0.4,1.5c-0.1,0.2-0.2,0.4-0.4,0.6c-0.1,0.2-0.3,0.5-0.5,0.8c-0.4,0.5-0.6,1-0.8,1.3
	c-0.1,0.3-0.2,0.6,0,0.8l-0.1,0.1l-2.2-1.5c0-0.2,0-0.4,0.1-0.6c0.1-0.2,0.2-0.4,0.3-0.6l1.3-2c0.3-0.4,0.4-0.8,0.4-1.1
	c0-0.4-0.2-0.7-0.7-1l-1.1-0.8l-3,4.3l-2-1.4l7.1-10.1L-142,372.1z M-145.9,375.8c0.5,0.3,0.9,0.5,1.4,0.4c0.4,0,0.8-0.3,1.2-0.9
	c0.7-0.9,0.5-1.7-0.4-2.4l-1-0.7l-2,2.9L-145.9,375.8z"/>
<path class="st9" d="M-127.8,380.4l-2.7,12.4l-2.3-1.2l0.7-2.6l-2.9-1.5l-1.7,2.1l-2.3-1.2l8.5-9.5L-127.8,380.4z M-131.5,387.1
	l1.5-5.5l0,0l-3.6,4.4L-131.5,387.1z"/>
<path class="st9" d="M-115.3,385.8c0.8,0.3,1.4,0.7,1.8,1.1c0.4,0.5,0.6,1,0.7,1.6c0.1,0.6,0.1,1.3-0.1,2c-0.2,0.7-0.4,1.5-0.7,2.4
	c-0.4,1-0.8,1.9-1.2,2.6c-0.4,0.7-0.8,1.2-1.3,1.6c-0.5,0.4-1,0.6-1.6,0.6c-0.6,0-1.3-0.1-2.1-0.4l-3.7-1.4l4.3-11.5L-115.3,385.8z
	 M-119.4,395.5c0.4,0.2,0.8,0.2,1.1,0.2c0.3,0,0.6-0.2,0.9-0.5c0.3-0.3,0.5-0.7,0.8-1.2c0.2-0.5,0.5-1.2,0.8-1.9
	c0.2-0.7,0.4-1.2,0.6-1.8c0.1-0.5,0.2-1,0.2-1.3c0-0.4-0.1-0.7-0.3-1c-0.2-0.3-0.5-0.5-1-0.6l-1-0.4l-3,8.1L-119.4,395.5z"/>
<rect x="-107.4" y="389.2" transform="matrix(-0.9593 -0.2826 0.2826 -0.9593 -319.6509 744.6005)" class="st9" width="2.5" height="12.3"/>
<path class="st9" d="M-93.2,394.6c-0.1-0.4-0.4-0.7-1-0.9c-0.3-0.1-0.6,0-0.8,0.1c-0.2,0.1-0.4,0.3-0.6,0.7
	c-0.2,0.3-0.4,0.8-0.6,1.4c-0.2,0.6-0.4,1.3-0.6,2.1c-0.2,0.9-0.3,1.6-0.4,2.2c-0.1,0.6-0.1,1,0,1.4c0.1,0.3,0.2,0.6,0.3,0.7
	c0.2,0.2,0.4,0.3,0.6,0.3c0.2,0,0.4,0.1,0.6,0c0.2,0,0.4-0.1,0.6-0.3c0.2-0.2,0.4-0.5,0.5-0.9c0.2-0.4,0.3-0.9,0.5-1.5l2.4,0.6
	c-0.1,0.6-0.3,1.3-0.6,1.8c-0.2,0.6-0.5,1-0.9,1.4c-0.4,0.4-0.8,0.6-1.4,0.8c-0.6,0.1-1.2,0.1-2-0.1c-0.9-0.2-1.6-0.5-2.1-0.9
	c-0.5-0.4-0.8-0.9-0.9-1.5c-0.2-0.6-0.2-1.3-0.1-2.1c0.1-0.8,0.2-1.6,0.5-2.5c0.2-0.9,0.4-1.7,0.7-2.5c0.3-0.7,0.6-1.4,1-1.8
	c0.4-0.5,0.9-0.8,1.5-1s1.4-0.2,2.3,0c0.9,0.2,1.5,0.5,1.9,0.9c0.4,0.4,0.7,0.8,0.9,1.3c0.1,0.5,0.2,1,0.1,1.5
	c-0.1,0.5-0.1,1-0.2,1.4l-2.4-0.6C-93.1,395.7-93.1,395-93.2,394.6"/>
<rect x="-85.6" y="394.2" transform="matrix(-0.9853 -0.1708 0.1708 -0.9853 -235.8251 780.4734)" class="st9" width="2.5" height="12.3"/>
<path class="st9" d="M-77.1,398.9c0.2-0.8,0.5-1.4,0.8-1.9c0.4-0.5,0.8-0.9,1.4-1.2c0.6-0.2,1.3-0.3,2.3-0.2
	c0.9,0.1,1.6,0.4,2.1,0.7c0.5,0.4,0.9,0.9,1.1,1.5c0.2,0.6,0.3,1.3,0.3,2.1c0,0.8-0.1,1.6-0.2,2.6c-0.1,0.9-0.3,1.8-0.4,2.5
	c-0.2,0.8-0.5,1.4-0.8,1.9c-0.4,0.5-0.8,0.9-1.4,1.1c-0.6,0.2-1.3,0.3-2.3,0.2c-0.9-0.1-1.6-0.4-2.2-0.7c-0.5-0.4-0.9-0.8-1.1-1.4
	c-0.2-0.6-0.3-1.3-0.3-2.1c0-0.8,0.1-1.6,0.2-2.6C-77.5,400.6-77.3,399.7-77.1,398.9 M-75.3,403.9c0,0.6,0,1.1,0.1,1.4
	c0.1,0.4,0.2,0.7,0.4,0.8c0.2,0.2,0.5,0.3,0.8,0.4c0.4,0,0.7,0,0.9-0.1c0.2-0.1,0.4-0.4,0.6-0.7c0.2-0.3,0.3-0.8,0.4-1.4
	c0.1-0.6,0.2-1.3,0.3-2.1c0.1-0.8,0.2-1.5,0.2-2.1c0-0.6,0-1.1-0.1-1.4c-0.1-0.4-0.2-0.7-0.4-0.9c-0.2-0.2-0.5-0.3-0.8-0.4
	c-0.4,0-0.7,0-0.9,0.1c-0.2,0.1-0.4,0.4-0.6,0.7c-0.2,0.3-0.3,0.8-0.4,1.4c-0.1,0.6-0.2,1.3-0.3,2.1
	C-75.2,402.6-75.3,403.3-75.3,403.9 M-70.1,393l-2,2.3l-1.6-0.2l1.2-2.3L-70.1,393z"/>
<polygon class="st9" points="-57.9,405.7 -57.9,405.7 -57.3,397.3 -55,397.5 -55.9,409.8 -58.7,409.6 -61.1,400.8 -61.1,400.8 
	-61.7,409.4 -64,409.2 -63.2,396.9 -60.3,397.1 "/>
<path class="st9" d="M-38.1,397.9c0.9,0,1.6,0.1,2.1,0.4c0.5,0.3,0.9,0.7,1.2,1.2c0.3,0.5,0.5,1.2,0.6,1.9c0.1,0.7,0.2,1.6,0.2,2.5
	c0,1.1-0.1,2-0.2,2.8c-0.1,0.8-0.4,1.5-0.7,2c-0.3,0.5-0.8,0.9-1.3,1.2c-0.5,0.3-1.2,0.4-2.1,0.4l-3.9,0l0-12.3L-38.1,397.9z
	 M-38.6,408.4c0.4,0,0.8-0.1,1.1-0.2c0.3-0.1,0.5-0.4,0.6-0.7c0.2-0.3,0.3-0.8,0.3-1.4c0.1-0.6,0.1-1.3,0.1-2.1c0-0.7,0-1.3-0.1-1.8
	c0-0.5-0.1-1-0.3-1.3c-0.1-0.4-0.4-0.6-0.6-0.8c-0.3-0.2-0.7-0.3-1.1-0.3l-1.1,0l0,8.7L-38.6,408.4z"/>
<polygon class="st9" points="-22.1,399.6 -26.5,399.8 -26.4,402.7 -22.2,402.5 -22.2,404.5 -26.3,404.7 -26.2,408 -21.6,407.8 
	-21.6,409.9 -28.6,410.1 -29,397.8 -22.2,397.6 "/>
<polygon class="st9" points="-2.9,395.9 -2.6,398 -7,398.4 -6.7,401.3 -2.6,400.9 -2.4,402.9 -6.5,403.3 -5.9,408.7 -8.4,408.9 
	-9.7,396.7 "/>
<path class="st9" d="M6.6,394.5l5.2,11.6l-2.6,0.4l-1-2.5L5,404.6l-0.1,2.7l-2.6,0.4L3.5,395L6.6,394.5z M7.5,402.2l-2.1-5.3l0,0
	l-0.3,5.7L7.5,402.2z"/>
<polygon class="st9" points="18.7,392.1 22.4,400.2 22.5,400.1 22.1,391.3 25.7,390.4 28.6,402.4 26.4,402.9 24.1,393.4 24,393.4 
	24.2,403.4 22.4,403.9 17.9,394.9 17.9,394.9 20.2,404.4 18,405 15.1,393 "/>
<rect x="33.7" y="387.8" transform="matrix(-0.9501 0.3119 -0.3119 -0.9501 190.9642 757.3876)" class="st9" width="2.5" height="12.3"/>
<polygon class="st9" points="40.1,385.6 42.4,384.7 46.3,394.2 50.3,392.5 51.1,394.4 44.7,397 "/>
<rect x="54.4" y="379.2" transform="matrix(-0.8892 0.4575 -0.4575 -0.8892 281.3978 702.6175)" class="st9" width="2.5" height="12.3"/>
<path class="st9" d="M64.7,372.9l9.5,8.5l-2.2,1.4l-1.9-1.9l-2.7,1.8l1,2.5l-2.2,1.4l-4.1-12.1L64.7,372.9z M68.6,379.4l-4-4l0,0
	l2.1,5.3L68.6,379.4z"/>
</svg>
