<?xml version="1.0" encoding="utf-8"?>
<!-- Generator: Adobe Illustrator 19.1.0, SVG Export Plug-In . SVG Version: 6.00 Build 0)  -->
<svg version="1.1" id="Layer_1" xmlns="http://www.w3.org/2000/svg" xmlns:xlink="http://www.w3.org/1999/xlink" x="0px" y="0px"
	 viewBox="0 0 363.4 117.9" style="enable-background:new 0 0 363.4 117.9;" xml:space="preserve">
<style type="text/css">
	.st0{fill:#BBBDBF;}
	.st1{fill:none;stroke:#FFFFFF;stroke-width:3.375;stroke-miterlimit:10;}
	.st2{fill:#231F20;}
	.st3{fill:#A32A29;stroke:#FFF6E0;stroke-width:2.0311;stroke-linejoin:round;stroke-miterlimit:10;}
	.st4{fill:#F42534;stroke:#FFF6E0;stroke-width:2.0311;stroke-miterlimit:10;}
	.st5{fill:#3FAE2A;}
	.st6{fill:#3FAE2A;stroke:#FFF6E0;stroke-width:2.0311;stroke-linejoin:round;stroke-miterlimit:10;}
	.st7{fill:#A6A8AB;}
	.st8{fill:none;stroke:#FFF6E0;stroke-width:2.0311;stroke-linecap:round;stroke-miterlimit:10;}
</style>
<g>
	<g>
		<path class="st0" d="M0,31.7c0,17,8.1,29.5,23.9,29.5c5,0,9.2-1.8,11.7-3.4l-1.2-3.2c-3.3,1.2-5.7,1.7-8.7,1.7
			c-7,0-12.9-10.3-12.9-24.6c0-14.3,5.9-24.6,12.9-24.6c3,0,5.5,0.5,8.7,1.7l1.2-3.2C33.1,4,28.8,2.3,23.9,2.3
			C8.1,2.3,0,14.8,0,31.7z"/>
		<path class="st0" d="M126.1,41.2c-4.5-9.5-11.5-28-14.7-38H98.1v1.1c1.6,0.1,2.6,0.8,3.4,2.2c-1.6,4.6-6.8,20.5-10.7,30.5h-0.3
			c0-4.9-4.7-11.1-9-14.5c-4.8-3.8-8.9-6.6-8.9-10.9c0-4.3,6-6.9,13.3-3.8L87,4.8c-2.1-1.1-5.3-2.5-10.5-2.5
			c-7.6,0-12.5,5.5-12.5,11.5c0,6.9,5.5,11.6,9.3,14.7c3.9,3.1,8.2,8.3,8.2,11.9c0,3.6-2.3,7.7-7.4,7.7c-5.1,0-8.6-4-11.2-8.8
			c-2.5-4.9-11.4-28.1-13.6-35.9H36.6v1c1.6,0.1,2.6,0.8,3.4,2.2c-1.6,4.6-6.9,20.4-10.7,30.5c-1.8,4.8-3.3,7.7-5.6,8.7v0.9h11.4
			l0-0.8c-2.4-0.4-3.5-2.7-2.9-4.7l2.4-7h16c0.9,2.5,1.5,4.5,1.8,5.3c1.1,3.4,1,5.7,0.3,7.2c9.8,0,14.6,4.9,21.3,4.9
			c6.8,0,9.4-3,11.8-4.2c3.2-1.6,10.4-0.7,10.4-0.7v-0.9c-2.4-0.4-3.2-2.5-2.6-4.5l2.4-7H113c1.8,5,3.3,9.5,4,12.4h13.5v-1.1
			C128,45,126.9,42.9,126.1,41.2z M35.9,30.5l6.7-19.3c0,0,3.8,10.9,6.8,19.3H35.9z M97.4,30.5l6.7-19.2c1.6,3.7,4.7,11.5,7.5,19.2
			H97.4z"/>
		<path class="st0" d="M333.3,36c0-3.6-1.3-6.6-5.2-9.8c-3.9-3.1-9.3-6.5-9.3-12.6c0-6,4.9-11.5,12.5-11.5c5.2,0,8.3,1.4,10.5,2.5
			l-1.1,3.1c-7.3-3.1-13.3-0.5-13.3,3.8c0,2.8,3.1,4.3,7.9,8.1c4.3,3.4,7.4,7.2,7.4,14.2c0,7-4.8,12.7-13.9,12.7
			c-4.2,0-7.4-1.1-9.9-2.1l1.2-2.9C322.7,42.7,333.3,45.3,333.3,36z"/>
		<path class="st0" d="M274,41.2c-4.5-9.5-11.5-28-14.7-38H246v1.1c1.6,0.1,2.6,0.8,3.4,2.2c-1.6,4.6-6.8,20.5-10.7,30.5h-0.3
			c0-4.9-4.7-11.1-9-14.5c-4.8-3.8-8.9-6.6-8.9-10.9c0-4.3,6-6.9,13.3-3.8l1.1-3.1c-2.1-1.1-5.3-2.5-10.5-2.5
			c-7.6,0-12.5,5.5-12.5,11.5c0,6.9,5.5,11.6,9.3,14.7c3.9,3.1,8.2,8.3,8.2,11.9c0,3.6-2.3,7.7-7.4,7.7c-5.1,0-8.3-2.3-9.9-7.5
			c-2.5,2-6.2,4.9-11.6,4.9v1.2c9.8,0,14.6,4.9,21.3,4.9c6.8,0,9.4-3,11.8-4.2c3.2-1.6,10.4-0.7,10.4-0.7v-0.9
			c-2.4-0.4-3.3-2.5-2.6-4.5l2.4-7h16.8c1.8,5,3.3,9.5,4,12.4h13.5v-1.1C275.9,45,274.8,42.9,274,41.2z M245.3,30.5l6.7-19.2
			c1.6,3.7,4.7,11.5,7.5,19.2H245.3z"/>
		<path class="st0" d="M138,3.3v1.3c2.2,0.5,4.1,2.8,4.1,8.9c0,6,0,23.3,0,23.3c0,4.1-1.6,8.6-4.1,8.9v0.9h17.9v-0.9
			c-1.4-0.5-4.5-1.3-4.5-9.1c0-7.8,0-28.3,0-28.3c1.6-2,3.4-2.8,6.6-2.8c3.2,0,10.8,1.4,10.8,10c0,6.5-2.9,10.2-8.2,10.2
			c-3.7,0-6.8-0.9-10.3-2.8v3c7,3.2,11.4,9.5,17.3,20.1c5.9,10.6,15,15.2,24.4,15.2c8.2,0,12.4-4,13.8-6.5l-1.3-1.1
			c-2.3,2.6-4.6,4.3-10.5,4.3c-5.9,0-10.8-9-14.4-14.4c-5.9-8.8-13.3-13.5-20.4-15.6l0.1-0.2c13.7,2.9,19.7-5,19.7-11
			c0-9.2-6.5-14.2-16.6-14.2c-4,0-9.4,1-14.2,1C143.4,3.3,140.7,3.3,138,3.3z"/>
		<path class="st0" d="M195.8,2.3c12.9,0,18,9.9,18,19.1c0,9.3-5.1,19.1-18,19.1c-12.9,0-18-9.9-18-19.1
			C177.8,12.1,182.9,2.3,195.8,2.3z M195.8,5.8c-5.3,0-8.7,6-8.7,15.6c0,9.6,3.5,15.6,8.7,15.6c5.3,0,8.7-6,8.7-15.6
			C204.5,11.8,201.1,5.8,195.8,5.8z"/>
		<path class="st0" d="M286.3,13.2c0-4.1,1.5-8.6,3.9-8.9V3.3h-17.9v0.9c1.4,0.5,4.5,1.3,4.5,9.1v31.2c0,4.3-1.8,8.6-4.7,10.5
			l0.8,1.6c5.5-2.4,10.1-2.6,15.1-2.6c5.1,0,28.7,6.5,38.6,6.5c6.5,0,10-2.2,11.6-3.5l2.3-8.2l-0.9-0.5c-3,2.7-8.8,6.6-18.3,6.6
			s-25.9-4-34.5-3.9c-0.1-2.6-0.5-7.6-0.5-9.8V13.2z"/>
		<path class="st0" d="M320.3,33.7c-1.7,2.2-3.7,3.7-5.8,3.7h-9.4V18.6c1.4,0,3.6,0,5,0c2.2,0,4.1,0.7,5.6,2.5l0.6-0.3
			c-1.6-2.6-1.9-5.8-1.9-5.8c-1.3,0.6-2.2,0.7-4.2,0.7h-5V5.6c0,0,2.7,0,5.8,0c3.1,0,5.3,1.6,6.4,3.2l0.7-0.5l-2.6-5h-23.2v0.9
			c1.4,0.5,4.5,1.3,4.5,9.1V30c0,7.8-3.1,8.5-4.5,9.1v1h25.3l3.8-5.9L320.3,33.7z"/>
	</g>
	<g>
		<g>
			<path class="st1" d="M30.1,54.1c-7,0-12.9-10.3-12.9-24.6c0-14.3,5.9-24.6,12.9-24.6c3,0,5.5,0.5,8.7,1.7L40,3.4
				C37.6,1.8,33.3,0,28.4,0C12.6,0,4.5,12.5,4.5,29.5c0,17,8.1,29.5,23.9,29.5c5,0,9.2-1.8,11.7-3.4l-1.2-3.2
				C35.6,53.6,33.1,54.1,30.1,54.1z"/>
			<path class="st2" d="M30.1,54.1c-7,0-12.9-10.3-12.9-24.6c0-14.3,5.9-24.6,12.9-24.6c3,0,5.5,0.5,8.7,1.7L40,3.4
				C37.6,1.8,33.3,0,28.4,0C12.6,0,4.5,12.5,4.5,29.5c0,17,8.1,29.5,23.9,29.5c5,0,9.2-1.8,11.7-3.4l-1.2-3.2
				C35.6,53.6,33.1,54.1,30.1,54.1z"/>
		</g>
		<g>
			<path class="st1" d="M130.6,38.9c-4.5-9.5-11.5-28-14.7-38h-13.3v1.1c1.6,0.1,2.6,0.8,3.4,2.2c-1.6,4.6-6.8,20.5-10.7,30.5H95
				c0-4.9-4.7-11.1-9-14.5c-4.8-3.8-8.9-6.6-8.9-10.9c0-4.3,6-6.9,13.3-3.8l1.1-3.1C89.4,1.4,86.3,0,81.1,0
				c-7.6,0-12.5,5.5-12.5,11.5c0,6.9,5.5,11.6,9.3,14.7c3.9,3.1,8.2,8.3,8.2,11.9c0,3.6-2.3,7.7-7.4,7.7c-5.1,0-8.6-4-11.2-8.8
				C65,32.1,56.2,8.8,54,1.1H41.1v1c1.6,0.1,2.6,0.8,3.4,2.2c-1.6,4.6-6.9,20.4-10.7,30.5c-1.8,4.8-3.3,7.7-5.6,8.7v0.9h11.4l0-0.8
				c-2.4-0.4-3.5-2.7-2.9-4.7l2.4-7h16c0.9,2.5,1.5,4.5,1.8,5.3c1.1,3.4,1,5.7,0.3,7.2c9.8,0,14.6,4.9,21.3,4.9
				c6.8,0,9.4-3,11.8-4.2c3.2-1.6,10.4-0.7,10.4-0.7v-0.9c-2.4-0.4-3.2-2.5-2.6-4.5l2.4-7h16.8c1.8,5,3.3,9.5,4,12.4H135v-1.1
				C132.5,42.8,131.4,40.6,130.6,38.9z M40.4,28.2L47.2,9c0,0,3.8,10.9,6.8,19.3H40.4z M101.9,28.2l6.7-19.2
				c1.6,3.7,4.7,11.5,7.5,19.2H101.9z"/>
			<path class="st2" d="M130.6,38.9c-4.5-9.5-11.5-28-14.7-38h-13.3v1.1c1.6,0.1,2.6,0.8,3.4,2.2c-1.6,4.6-6.8,20.5-10.7,30.5H95
				c0-4.9-4.7-11.1-9-14.5c-4.8-3.8-8.9-6.6-8.9-10.9c0-4.3,6-6.9,13.3-3.8l1.1-3.1C89.4,1.4,86.3,0,81.1,0
				c-7.6,0-12.5,5.5-12.5,11.5c0,6.9,5.5,11.6,9.3,14.7c3.9,3.1,8.2,8.3,8.2,11.9c0,3.6-2.3,7.7-7.4,7.7c-5.1,0-8.6-4-11.2-8.8
				C65,32.1,56.2,8.8,54,1.1H41.1v1c1.6,0.1,2.6,0.8,3.4,2.2c-1.6,4.6-6.9,20.4-10.7,30.5c-1.8,4.8-3.3,7.7-5.6,8.7v0.9h11.4l0-0.8
				c-2.4-0.4-3.5-2.7-2.9-4.7l2.4-7h16c0.9,2.5,1.5,4.5,1.8,5.3c1.1,3.4,1,5.7,0.3,7.2c9.8,0,14.6,4.9,21.3,4.9
				c6.8,0,9.4-3,11.8-4.2c3.2-1.6,10.4-0.7,10.4-0.7v-0.9c-2.4-0.4-3.2-2.5-2.6-4.5l2.4-7h16.8c1.8,5,3.3,9.5,4,12.4H135v-1.1
				C132.5,42.8,131.4,40.6,130.6,38.9z M40.4,28.2L47.2,9c0,0,3.8,10.9,6.8,19.3H40.4z M101.9,28.2l6.7-19.2
				c1.6,3.7,4.7,11.5,7.5,19.2H101.9z"/>
		</g>
		<g>
			<path class="st1" d="M332.6,24c3.9,3.1,5.2,6.2,5.2,9.8c0,9.3-10.6,6.6-13.3,5.6l-1.2,2.9c2.4,1,5.7,2.1,9.9,2.1
				c9.1,0,13.9-5.7,13.9-12.7c0-7-3-10.8-7.4-14.2c-4.9-3.8-7.9-5.2-7.9-8.1c0-4.3,6-6.9,13.3-3.8l1.1-3.1
				c-2.1-1.1-5.3-2.5-10.5-2.5c-7.6,0-12.5,5.5-12.5,11.5C323.3,17.6,328.8,20.9,332.6,24z"/>
			<path class="st2" d="M332.6,24c3.9,3.1,5.2,6.2,5.2,9.8c0,9.3-10.6,6.6-13.3,5.6l-1.2,2.9c2.4,1,5.7,2.1,9.9,2.1
				c9.1,0,13.9-5.7,13.9-12.7c0-7-3-10.8-7.4-14.2c-4.9-3.8-7.9-5.2-7.9-8.1c0-4.3,6-6.9,13.3-3.8l1.1-3.1
				c-2.1-1.1-5.3-2.5-10.5-2.5c-7.6,0-12.5,5.5-12.5,11.5C323.3,17.6,328.8,20.9,332.6,24z"/>
		</g>
		<g>
			<path class="st1" d="M325.8,52.7c-9.5,0-25.9-4-34.5-3.9c-0.1-2.6-0.5-7.6-0.5-9.8V10.9c0-4.1,1.5-8.6,3.9-8.9V1h-17.9V2
				c1.4,0.5,4.5,1.3,4.5,9.1v31.2c0,0.1,0,0.2,0,0.4c-1.4-0.9-2.2-2.4-2.8-3.7C274,29.5,267,11,263.8,1h-13.3v1.1
				c1.6,0.1,2.6,0.8,3.4,2.2c-1.6,4.6-6.8,20.5-10.7,30.5h-0.3c0-4.9-4.7-11.1-9-14.5c-4.8-3.8-8.9-6.6-8.9-10.9
				c0-4.3,6-6.9,13.3-3.8l1.1-3.1c-2.1-1.1-5.3-2.5-10.5-2.5c-7,0-11.7,4.7-12.4,10.1C214.1,4.4,209,0,200.3,0
				c-9.7,0-14.9,5.5-17,12.1C182.4,4.3,176.2,0,166.9,0c-4,0-9.4,1-14.2,1c-4.8,0-7.5,0-10.2,0v1.3c2.2,0.5,4.1,2.8,4.1,8.9
				c0,6,0,23.3,0,23.3c0,4.1-1.6,8.6-4.1,8.9v0.9h17.9v-0.9c-1.4-0.5-4.5-1.3-4.5-9.1c0-2.5,0-6.3,0-10.3
				c6.4,3.3,10.7,9.5,16.2,19.5c5.9,10.6,15,15.2,24.4,15.2c8.2,0,12.4-4,13.8-6.5l-1.3-1.1c-2.3,2.6-4.6,4.3-10.5,4.3
				c-5.9,0-10.8-9-14.4-14.4c-5.9-8.8-13.3-13.5-20.4-15.6l0.1-0.2c10.3,2.2,16.2-1.7,18.6-6.4c0,0.1,0,0.2,0,0.2
				c0,9.3,5.1,19.1,18,19.1c12.9,0,18-9.9,18-19.1c0-0.3,0-0.7,0-1c1.9,3.4,5,6.1,7.5,8.1c3.9,3.1,8.2,8.3,8.2,11.9
				c0,3.6-2.3,7.7-7.4,7.7c-5.1,0-8.3-2.3-9.9-7.5c-2.5,2-6.2,4.9-11.6,4.9v1.2c9.8,0,14.6,4.9,21.3,4.9c6.8,0,9.4-3,11.8-4.2
				c3.2-1.6,10.4-0.7,10.4-0.7v-0.9c-2.4-0.4-3.3-2.5-2.6-4.5l2.4-7h16.8c1.8,5,3.3,9.5,4,12.4h11.8c-0.5,3.6-2.1,6.9-4.6,8.4
				l0.8,1.6c5.5-2.4,10.1-2.6,15.1-2.6c5.1,0,28.7,6.5,38.6,6.5c6.5,0,10-2.2,11.6-3.5l2.3-8.2l-0.9-0.5
				C341,48.8,335.2,52.7,325.8,52.7z M165.2,23.3c-3.3,0-6.1-0.8-9.2-2.3c0-7.6,0-14.9,0-14.9c1.6-2,3.4-2.8,6.6-2.8
				c3.2,0,10.8,1.4,10.8,10C173.4,19.6,170.4,23.3,165.2,23.3z M200.3,34.8c-5.3,0-8.7-6-8.7-15.6c0-9.6,3.5-15.6,8.7-15.6
				c5.3,0,8.7,6,8.7,15.6C209,28.7,205.6,34.8,200.3,34.8z M249.8,28.2l6.7-19.2c1.6,3.7,4.7,11.5,7.5,19.2H249.8z"/>
			<path class="st2" d="M325.8,52.7c-9.5,0-25.9-4-34.5-3.9c-0.1-2.6-0.5-7.6-0.5-9.8V10.9c0-4.1,1.5-8.6,3.9-8.9V1h-17.9V2
				c1.4,0.5,4.5,1.3,4.5,9.1v31.2c0,0.1,0,0.2,0,0.4c-1.4-0.9-2.2-2.4-2.8-3.7C274,29.5,267,11,263.8,1h-13.3v1.1
				c1.6,0.1,2.6,0.8,3.4,2.2c-1.6,4.6-6.8,20.5-10.7,30.5h-0.3c0-4.9-4.7-11.1-9-14.5c-4.8-3.8-8.9-6.6-8.9-10.9
				c0-4.3,6-6.9,13.3-3.8l1.1-3.1c-2.1-1.1-5.3-2.5-10.5-2.5c-7,0-11.7,4.7-12.4,10.1C214.1,4.4,209,0,200.3,0
				c-9.7,0-14.9,5.5-17,12.1C182.4,4.3,176.2,0,166.9,0c-4,0-9.4,1-14.2,1c-4.8,0-7.5,0-10.2,0v1.3c2.2,0.5,4.1,2.8,4.1,8.9
				c0,6,0,23.3,0,23.3c0,4.1-1.6,8.6-4.1,8.9v0.9h17.9v-0.9c-1.4-0.5-4.5-1.3-4.5-9.1c0-2.5,0-6.3,0-10.3
				c6.4,3.3,10.7,9.5,16.2,19.5c5.9,10.6,15,15.2,24.4,15.2c8.2,0,12.4-4,13.8-6.5l-1.3-1.1c-2.3,2.6-4.6,4.3-10.5,4.3
				c-5.9,0-10.8-9-14.4-14.4c-5.9-8.8-13.3-13.5-20.4-15.6l0.1-0.2c10.3,2.2,16.2-1.7,18.6-6.4c0,0.1,0,0.2,0,0.2
				c0,9.3,5.1,19.1,18,19.1c12.9,0,18-9.9,18-19.1c0-0.3,0-0.7,0-1c1.9,3.4,5,6.1,7.5,8.1c3.9,3.1,8.2,8.3,8.2,11.9
				c0,3.6-2.3,7.7-7.4,7.7c-5.1,0-8.3-2.3-9.9-7.5c-2.5,2-6.2,4.9-11.6,4.9v1.2c9.8,0,14.6,4.9,21.3,4.9c6.8,0,9.4-3,11.8-4.2
				c3.2-1.6,10.4-0.7,10.4-0.7v-0.9c-2.4-0.4-3.3-2.5-2.6-4.5l2.4-7h16.8c1.8,5,3.3,9.5,4,12.4h11.8c-0.5,3.6-2.1,6.9-4.6,8.4
				l0.8,1.6c5.5-2.4,10.1-2.6,15.1-2.6c5.1,0,28.7,6.5,38.6,6.5c6.5,0,10-2.2,11.6-3.5l2.3-8.2l-0.9-0.5
				C341,48.8,335.2,52.7,325.8,52.7z M165.2,23.3c-3.3,0-6.1-0.8-9.2-2.3c0-7.6,0-14.9,0-14.9c1.6-2,3.4-2.8,6.6-2.8
				c3.2,0,10.8,1.4,10.8,10C173.4,19.6,170.4,23.3,165.2,23.3z M200.3,34.8c-5.3,0-8.7-6-8.7-15.6c0-9.6,3.5-15.6,8.7-15.6
				c5.3,0,8.7,6,8.7,15.6C209,28.7,205.6,34.8,200.3,34.8z M249.8,28.2l6.7-19.2c1.6,3.7,4.7,11.5,7.5,19.2H249.8z"/>
		</g>
		<g>
			<path class="st1" d="M325.9,31.9l-1.1-0.5c-1.7,2.2-3.7,3.7-5.8,3.7h-9.4V16.3c1.4,0,3.6,0,5,0c2.2,0,4.1,0.7,5.6,2.5l0.6-0.3
				c-1.6-2.6-1.9-5.8-1.9-5.8c-1.3,0.6-2.2,0.7-4.2,0.7h-5V3.3c0,0,2.7,0,5.8,0c3.1,0,5.3,1.6,6.4,3.2l0.7-0.5L320,1h-23.2V2
				c1.4,0.5,4.5,1.3,4.5,9.1v16.6c0,7.8-3.1,8.5-4.5,9.1v1h25.3L325.9,31.9z"/>
			<path class="st2" d="M325.9,31.9l-1.1-0.5c-1.7,2.2-3.7,3.7-5.8,3.7h-9.4V16.3c1.4,0,3.6,0,5,0c2.2,0,4.1,0.7,5.6,2.5l0.6-0.3
				c-1.6-2.6-1.9-5.8-1.9-5.8c-1.3,0.6-2.2,0.7-4.2,0.7h-5V3.3c0,0,2.7,0,5.8,0c3.1,0,5.3,1.6,6.4,3.2l0.7-0.5L320,1h-23.2V2
				c1.4,0.5,4.5,1.3,4.5,9.1v16.6c0,7.8-3.1,8.5-4.5,9.1v1h25.3L325.9,31.9z"/>
		</g>
	</g>
	<path class="st3" d="M145.3,92.7c0-7.1-0.2-12.1-8.2-21.2c-5.1-5.8-8.6-8.3-13.3-9.7c1.3,4.9,1.4,16.1-7.7,15.1c-9-1-19.2-0.4-20,5
		C94.5,92,115,98.1,135.2,98.1C142.3,98.1,145.3,96.3,145.3,92.7z"/>
	<g>
		<path class="st4" d="M129.5,80c0-6.4-1.7-13.5-5.6-17.7c1.3,5.1,0.1,15.4-8.6,14c-9.3-1.5-17.9,1-19,4.3
			c-1.4,4.6,1.7,8.2,7.2,10.4C118.3,96.9,129.5,87.5,129.5,80z"/>
	</g>
	<path class="st5" d="M219,100.1c-5.8-1-8.8-2.5-11.1-3.6C204,84.8,189.1,76,181.9,77.7c4.3,1.6,5.8,5.6,6.8,8.9
		C190,91,196.3,98,207,98.2c3.7,1.5,7.9,2.6,10.7,2.9L219,100.1z"/>
	<path class="st5" d="M190.7,105.3c-3.9,3.1-6,4.3-9.1,5.5c-2.9,5-6.7,6.3-10.2,6.8c-11.6,1.7-17-3.9-25.3-1.9
		c5.4-2.5,11.7-7.2,22-8.2c6.5-0.6,8.7,2.8,12.8,1.8c4-1,5.5-2.8,6.8-3.7L190.7,105.3z"/>
	<path class="st5" d="M170.9,102.8c-2.9-1.8-4.9-4.1-5.6-5.1c-0.1-2.9,0.1-14.4-13.7-18.5c1,6.4-0.4,15.3,12,19
		c2.4,2.5,4.4,4.4,5.9,5.3L170.9,102.8z"/>
	<path class="st6" d="M266.2,70.4l-0.5,0.1c-2.2,0.6-2.9,0.6-5.2,0l-0.6-0.1l-0.3,0.5c-4.4,7.1-13.9,18.2-20.8,18.2
		c-0.7,0-1.3-0.1-1.9-0.3l-1-0.3l-0.1,1c-0.2,2.1-2.5,4.4-4.5,5.3c-1.9,0.8-12,4.4-26,6.5c-5.4,0.8-12.9,1.3-20.6,1.3
		c-14.6,0-27.1-1.6-34.1-4.5c-0.7-0.3-1.1-3-1.4-5.2c-0.5-3.6-1-7.7-3.3-9.8l-1.5-1.5l0.2,2.1c0.1,0.6,0.2,1.4,0.3,2.4
		c0.4,2.5,1,6.3,0.3,8.1c-3.5-0.1-7.1-1.7-9.5-3l-3.1-1.6l2.1,2.8c1.7,2.3,2.6,3.5,3.5,4.4c-2.7,1.4-5.4,1.8-8.4,1.4l-4.8-0.7
		l4.3,2.2c2,1,4.6,1.2,6.7,1.2c0.9,0,1.8,0,2.7-0.1c0.8,0,1.7-0.1,2.5-0.1c1.3,0,2.3,0.1,3,0.2c1,0.2,2.2,0.5,3.8,1
		c6.5,1.7,18.6,4.9,34.1,4.9c14.1,0,14.7,1.1,15.9,3.3l0.8,1.4l0.7-1.3c1.3-2.5,3.5-3.8,7-4.2c28-3.4,50.7-16,60.8-33.6l0.3-0.5
		L266.2,70.4z"/>
	<g>
		<path class="st7" d="M141.2,99.8c1.4,0,2.4,0.1,3.2,0.2c0.9,0.2,2.2,0.5,3.8,0.9c6.6,1.8,18.6,4.9,34,4.9c13.6,0,15.2,1,16.7,3.5
			c1.5-2.5,3.9-4,7.6-4.5c27.6-3.4,50-15.7,60-33l-0.5-0.5c-2.1,0.5-3.2,0.5-5.4,0c-4.7,7.5-14.2,18.6-21.6,18.6
			c-0.7,0-1.3-0.1-2-0.3c-0.4,2.4-2.9,4.9-5.1,5.9c-2,0.9-12.2,4.5-26.2,6.6c-5.5,0.8-13,1.3-20.7,1.3c-14.7,0-27.3-1.7-34.5-4.5
			c-1.1-0.5-1.5-2.3-2-6c-0.4-3.2-0.9-6.8-2.6-8.8c0.1,0.5,0.2,1.1,0.3,1.7c0.4,2.8,1.1,6.5,0.2,8.7c-0.2,0.4-0.5,0.6-1,0.6
			c-3.4-0.1-6.7-1.5-9.2-2.7c1.3,1.8,2.1,2.8,2.9,3.5c0.2,0.2,0.4,0.6,0.3,0.9c0,0.3-0.2,0.6-0.5,0.8c-2.4,1.3-4.9,1.8-7.5,1.6
			c1.6,0.4,3.3,0.5,4.8,0.5c0.9,0,1.8,0,2.7-0.1C139.5,99.8,140.4,99.8,141.2,99.8z"/>
	</g>
	<path class="st8" d="M116.3,76.5c9.6,1.2,7.6,6.9,3.6,9.1c-4.1,2.2-13,2.7-14.8-1.3c-1.8-4.1,7.7-5,11-2.2"/>
	<g>
		<path class="st2" d="M354,1.2v1.2h-2.3v6.1h-1.5V2.4h-2.3V1.2H354z M362,8.5l-0.3-4.3c0-0.6,0-1.3-0.1-2.1h-0.1
			c-0.2,0.6-0.4,1.5-0.6,2.2l-1.3,4.1h-1.5l-1.3-4.2c-0.1-0.6-0.4-1.4-0.5-2.1h-0.1c0,0.7,0,1.4-0.1,2.1l-0.3,4.3h-1.4l0.5-7.3h2.2
			l1.3,3.6c0.2,0.6,0.3,1.1,0.5,1.9h0c0.2-0.7,0.4-1.3,0.5-1.8l1.3-3.6h2.1l0.6,7.3H362z"/>
	</g>
</g>
</svg>
